<?xml version="1.0" encoding="utf-8"?>
<!-- Generator: Adobe Illustrator 27.6.1, SVG Export Plug-In . SVG Version: 6.00 Build 0)  -->
<svg version="1.1" id="Layer_1" xmlns="http://www.w3.org/2000/svg" xmlns:xlink="http://www.w3.org/1999/xlink" x="0px" y="0px"
	 viewBox="0 0 110 110" style="enable-background:new 0 0 110 110;" xml:space="preserve">
<style type="text/css">
	.st0{fill:url(#SVGID_1_);}
	.st1{fill:url(#SVGID_00000000937789591205406910000016567992185832140465_);}
</style>
<g>
	<g>
		<linearGradient id="SVGID_1_" gradientUnits="userSpaceOnUse" x1="5" y1="55.0745" x2="105" y2="55.0745">
			<stop  offset="0" style="stop-color:#94C44C"/>
			<stop  offset="1" style="stop-color:#3C6503"/>
		</linearGradient>
		<path class="st0" d="M104,78.1c-0.7-1.7-1.7-3.2-3-4.5L91,63.7c-1.3-1.3-2.8-2.3-4.5-3c-1.7-0.7-3.5-1-5.3-1
			c-2.6,0-4.9,0.6-6.9,1.9c-1.6,1.1-3.1,2.3-4.3,3.5c-1.1,1.2-2.1,2.2-3,3.2c-0.3,0.4-0.6,0.5-0.8,0.4L41.4,43.8l0-0.3
			c0.4-0.5,0.8-1,1.4-1.5c0.7-0.6,1.4-1.3,2.2-2c0.9-0.8,1.8-1.8,2.5-2.8c0.8-1.1,1.5-2.3,2-3.6c0.6-1.4,0.9-3.1,0.9-4.8
			c0-1.8-0.4-3.6-1-5.3c-0.7-1.7-1.7-3.2-3-4.5l-9.9-9.9c-1.3-1.3-2.8-2.3-4.5-3c-3.4-1.4-7.1-1.4-10.5,0c-1.7,0.7-3.2,1.7-4.5,3
			c-1.8,1.8-3.4,3.5-4.8,4.9c-1.5,1.6-2.8,3.3-3.8,5c-1.1,1.8-1.9,3.8-2.5,5.9C5.3,27.1,5,29.7,5,32.5c0,4,0.6,8.1,1.9,12.3
			c1.2,4.1,2.9,8.3,5.1,12.4c2.1,4.1,4.7,8.2,7.6,12.1c2.9,3.9,6.2,7.7,9.7,11.2c3.5,3.5,7.2,6.8,11.1,9.7c3.9,3,8,5.6,12.1,7.7
			c4.1,2.2,8.4,3.9,12.6,5.2c4.3,1.3,8.5,1.9,12.6,1.9c2.9,0,5.4-0.3,7.5-0.8c2.2-0.5,4.2-1.4,6-2.4c1.7-1,3.4-2.4,5-3.9
			c1.5-1.4,3.1-3,4.9-4.8c1.3-1.3,2.3-2.8,3-4.5c0.7-1.7,1-3.5,1-5.3C105,81.6,104.6,79.8,104,78.1z M98.7,86.5
			c-0.4,1-1,1.9-1.7,2.6c-1.8,1.8-3.4,3.4-4.8,4.7c-1.3,1.2-2.6,2.3-4,3.1c-1.3,0.8-2.8,1.4-4.4,1.8c-1.7,0.4-3.7,0.6-6.2,0.6
			c-3.5,0-7.2-0.6-11-1.7c-3.8-1.1-7.7-2.7-11.5-4.7c-3.8-2-7.6-4.5-11.3-7.2c-3.7-2.8-7.2-5.9-10.5-9.2c-3.3-3.3-6.4-6.9-9.1-10.6
			c-2.8-3.7-5.2-7.5-7.2-11.3c-2-3.8-3.5-7.6-4.6-11.4c-1.1-3.7-1.6-7.3-1.6-10.7c0-2.4,0.2-4.5,0.6-6.1c0.4-1.6,1-3.1,1.8-4.4
			c0.8-1.4,1.9-2.7,3.1-4c1.4-1.4,2.9-3,4.7-4.8c0.8-0.8,1.6-1.3,2.6-1.7c1-0.4,2-0.6,3.1-0.6c1.1,0,2.1,0.2,3.1,0.6
			c1,0.4,1.9,1,2.6,1.7l9.9,9.9c0.8,0.8,1.3,1.6,1.7,2.6c0.4,1,0.6,2,0.6,3.1c0,1-0.2,1.9-0.5,2.7c-0.4,0.9-0.8,1.7-1.3,2.4
			c-0.6,0.8-1.2,1.4-1.8,2c-0.8,0.7-1.5,1.4-2.2,2c-0.8,0.7-1.5,1.5-2,2.2c-0.8,1.1-1.3,2.3-1.3,3.6c0,1.6,0.6,3,1.8,4.2l24.8,24.8
			c1.1,1.1,2.6,1.8,4.2,1.8c1.2,0,3.1-0.4,4.9-2.3c0.9-0.9,1.9-2,2.9-3.1c0.9-1,2.1-1.9,3.3-2.7c1.7-1.1,4.4-1.4,6.9-0.3
			c1,0.4,1.9,1,2.6,1.7l9.9,9.9c0.8,0.8,1.3,1.6,1.7,2.6c0.4,1,0.6,2,0.6,3.1C99.3,84.4,99.1,85.5,98.7,86.5z"/>
		
			<linearGradient id="SVGID_00000064316412792906572810000008347735945806626217_" gradientUnits="userSpaceOnUse" x1="55.0012" y1="27.3715" x2="101.8583" y2="27.3715">
			<stop  offset="0" style="stop-color:#94C44C"/>
			<stop  offset="1" style="stop-color:#3C6503"/>
		</linearGradient>
		<polygon style="fill:url(#SVGID_00000064316412792906572810000008347735945806626217_);" points="76.2,44.8 80.2,48.8 101.9,27.2 
			80.6,5.9 76.6,9.9 91,24.3 55,24.3 55,30 91,30 		"/>
	</g>
</g>
</svg>
