<?xml version="1.0" encoding="utf-8"?>
<!-- Generator: Adobe Illustrator 27.6.1, SVG Export Plug-In . SVG Version: 6.00 Build 0)  -->
<svg version="1.1" id="Layer_1" xmlns="http://www.w3.org/2000/svg" xmlns:xlink="http://www.w3.org/1999/xlink" x="0px" y="0px"
	 viewBox="0 0 88 88" style="enable-background:new 0 0 88 88;" xml:space="preserve">
<style type="text/css">
	.st0{fill:#FFFFFF;}
</style>
<g>
	<g>
		<g>
			<path class="st0" d="M8.2,0C3.6,0-0.1,3.7-0.1,8.3v63.2c0,3,2.5,5.5,5.5,5.5V8.3c0-1.5,1.2-2.8,2.8-2.8h68.9c0-3-2.5-5.5-5.5-5.5
				H8.2L8.2,0L8.2,0z"/>
			<path class="st0" d="M19.2,11c-4.6,0-8.3,3.7-8.3,8.3v60.5c0,4.6,3.7,8.3,8.3,8.3h33.5c2.2,0,4.3-0.9,5.8-2.4l27.1-27
				c1.5-1.5,2.4-3.6,2.4-5.8V19.3c0-4.6-3.7-8.3-8.3-8.3H19.2L19.2,11L19.2,11z M16.5,19.3c0-1.5,1.2-2.8,2.8-2.8h60.6
				c1.5,0,2.8,1.2,2.8,2.8v30.2H57.8c-4.6,0-8.3,3.7-8.3,8.3v24.8H19.2c-1.5,0-2.8-1.2-2.8-2.8V19.3L16.5,19.3L16.5,19.3z M55,81.4
				V57.7c0-1.5,1.2-2.7,2.8-2.7h23.7L55,81.4L55,81.4L55,81.4z"/>
		</g>
	</g>
</g>
</svg>
