<?xml version="1.0" encoding="utf-8"?>
<!-- Generator: Adobe Illustrator 27.6.1, SVG Export Plug-In . SVG Version: 6.00 Build 0)  -->
<svg version="1.1" id="Layer_1" xmlns="http://www.w3.org/2000/svg" xmlns:xlink="http://www.w3.org/1999/xlink" x="0px" y="0px"
	 viewBox="0 0 110 110" style="enable-background:new 0 0 110 110;" xml:space="preserve">
<style type="text/css">
	.st0{fill:url(#SVGID_1_);}
	.st1{fill:url(#SVGID_00000080899853506102522190000011832125897433904012_);}
	.st2{fill:url(#SVGID_00000031186652431653950490000009363151374988960187_);}
	.st3{fill:url(#SVGID_00000115483970894369569570000013271155433442801335_);}
	.st4{fill:url(#SVGID_00000157283921640907529510000017036866877675696530_);}
	.st5{fill:url(#SVGID_00000136413264534737317350000011875950203107443897_);}
	.st6{fill:url(#SVGID_00000019659148011727371660000008856918121095078844_);}
	.st7{fill:url(#SVGID_00000062188730585113095080000014894304004203869825_);}
	.st8{fill:url(#SVGID_00000029026952833314321790000014385250004009613757_);}
	.st9{fill:url(#SVGID_00000100349382559153857600000015468118859961510335_);}
</style>
<g>
	
		<linearGradient id="SVGID_1_" gradientUnits="userSpaceOnUse" x1="-209.6499" y1="112.36" x2="-209.6499" y2="2.1947" gradientTransform="matrix(1 0 0 -1 0 112)">
		<stop  offset="0" style="stop-color:#8BBF3F"/>
		<stop  offset="1" style="stop-color:#3B6302"/>
	</linearGradient>
	<path class="st0" d="M-206.6,71.9h-6.1c-5,0-9.1,4.1-9.1,9.1v13.4c0,5,4.1,9.1,9.1,9.1h6.1c5,0,9.1-4.1,9.1-9.1V81
		C-197.5,76-201.6,71.9-206.6,71.9z M-203.6,94.4c0,1.7-1.4,3-3,3h-6.1c-1.7,0-3-1.4-3-3V81c0-1.7,1.4-3,3-3h6.1c1.7,0,3,1.4,3,3
		V94.4z"/>
	
		<linearGradient id="SVGID_00000103984328554715800840000012300961692130592690_" gradientUnits="userSpaceOnUse" x1="-179.2499" y1="112.36" x2="-179.2499" y2="2.1947" gradientTransform="matrix(1 0 0 -1 0 112)">
		<stop  offset="0" style="stop-color:#8BBF3F"/>
		<stop  offset="1" style="stop-color:#3B6302"/>
	</linearGradient>
	<path style="fill:url(#SVGID_00000103984328554715800840000012300961692130592690_);" d="M-176.3,46.6h-6c-5,0-9.1,4.1-9.1,9.1
		v38.8c0,5,4.1,9.1,9.1,9.1h6.1c5,0,9.1-4.1,9.1-9.1V55.7C-167.2,50.7-171.2,46.6-176.3,46.6z M-173.2,94.4c0,1.7-1.4,3-3,3h-6.1
		c-1.7,0-3-1.4-3-3V55.7c0-1.7,1.4-3,3-3h6.1c1.7,0,3,1.4,3,3V94.4z"/>
	
		<linearGradient id="SVGID_00000093865502054579654630000006651034530787887254_" gradientUnits="userSpaceOnUse" x1="-148.9499" y1="112.36" x2="-148.9499" y2="2.1947" gradientTransform="matrix(1 0 0 -1 0 112)">
		<stop  offset="0" style="stop-color:#8BBF3F"/>
		<stop  offset="1" style="stop-color:#3B6302"/>
	</linearGradient>
	<path style="fill:url(#SVGID_00000093865502054579654630000006651034530787887254_);" d="M-145.9,71.9h-6.1c-5,0-9.1,4.1-9.1,9.1
		v13.4c0,5,4.1,9.1,9.1,9.1h6.1c5,0,9.1-4.1,9.1-9.1V81C-136.8,76-140.9,71.9-145.9,71.9z M-142.9,94.4c0,1.7-1.4,3-3,3h-6.1
		c-1.7,0-3-1.4-3-3V81c0-1.7,1.4-3,3-3h6.1c1.7,0,3,1.4,3,3V94.4z"/>
	
		<linearGradient id="SVGID_00000072995790055550321590000007375143825498135689_" gradientUnits="userSpaceOnUse" x1="-179.2582" y1="112.36" x2="-179.2582" y2="2.1947" gradientTransform="matrix(1 0 0 -1 0 112)">
		<stop  offset="0" style="stop-color:#8BBF3F"/>
		<stop  offset="1" style="stop-color:#3B6302"/>
	</linearGradient>
	<path style="fill:url(#SVGID_00000072995790055550321590000007375143825498135689_);" d="M-189.7,28.4l-1.6,9.1c-0.2,1,0.2,2,1,2.5
		c0.5,0.3,1,0.5,1.5,0.5c0.4,0,0.8-0.1,1.2-0.3l8.3-4.2l8.2,4.3c0.9,0.5,1.9,0.4,2.7-0.2c0.8-0.6,1.2-1.6,1-2.5l-1.6-9.1l6.7-6.5
		c0.7-0.7,1-1.7,0.7-2.7c-0.3-0.9-1.1-1.6-2.1-1.8l-9.1-1.3l-4.1-8.3c-0.5-0.9-1.4-1.4-2.4-1.4l0,0c-1,0-1.9,0.6-2.3,1.4l-4.1,8.3
		l-9.1,1.3c-1,0.1-1.8,0.8-2.1,1.8c-0.3,0.9-0.1,2,0.7,2.7L-189.7,28.4z M-183.6,21.2c0.8-0.1,1.6-0.7,2-1.4l2.4-4.8l2.4,4.8
		c0.4,0.8,1.1,1.3,2,1.4l5.3,0.8l-3.8,3.7c-0.6,0.6-0.9,1.5-0.7,2.3l0.9,5.3l-4.7-2.5c-0.4-0.2-0.8-0.3-1.2-0.3
		c-0.4,0-0.8,0.1-1.2,0.3l-4.7,2.5l0.6-5.3c0.1-0.8-0.1-1.7-0.7-2.3l-3.8-3.7L-183.6,21.2z"/>
	
		<linearGradient id="SVGID_00000181801154570303899280000001878131652233476742_" gradientUnits="userSpaceOnUse" x1="-148.8999" y1="112.36" x2="-148.8999" y2="2.1947" gradientTransform="matrix(1 0 0 -1 0 112)">
		<stop  offset="0" style="stop-color:#8BBF3F"/>
		<stop  offset="1" style="stop-color:#3B6302"/>
	</linearGradient>
	<path style="fill:url(#SVGID_00000181801154570303899280000001878131652233476742_);" d="M-131.3,46.1c-0.3-0.9-1.1-1.6-2.1-1.8
		l-9.1-1.3l-4.1-8.3c-0.4-0.9-1.3-1.5-2.3-1.5l0,0c-1,0-1.9,0.6-2.3,1.4l-4.1,8.3l-9.1,1.3c-1,0.1-1.8,0.8-2.1,1.8
		c-0.3,0.9-0.1,2,0.7,2.7l6.6,6.5l-1.6,9.1c-0.2,1,0.2,2,1,2.5c0.5,0.3,1,0.5,1.5,0.5c0.4,0,0.8-0.1,1.2-0.3l8.2-4.3l8.2,4.3
		c0.9,0.5,1.9,0.4,2.7-0.2c0.8-0.6,1.2-1.6,1-2.5l-1.6-9.1l6.6-6.5C-131.2,48.1-131,47-131.3,46.1z M-143.2,52.5
		c-0.6,0.6-0.9,1.5-0.7,2.3l0.9,5.3l-4.7-2.5c-0.4-0.2-0.8-0.3-1.2-0.3c-0.4,0-0.8,0.1-1.2,0.3l-4.7,2.5l0.9-5.3
		c0.1-0.8-0.1-1.7-0.7-2.3l-3.8-3.7l5.3-0.8c0.8-0.1,1.6-0.7,2-1.4l2.4-4.8l2.4,4.8c0.4,0.8,1.1,1.3,2,1.4l5.3,0.8L-143.2,52.5z"/>
	
		<linearGradient id="SVGID_00000039112539049369220350000003033462201589688483_" gradientUnits="userSpaceOnUse" x1="-209.6081" y1="112.36" x2="-209.6081" y2="2.1947" gradientTransform="matrix(1 0 0 -1 0 112)">
		<stop  offset="0" style="stop-color:#8BBF3F"/>
		<stop  offset="1" style="stop-color:#3B6302"/>
	</linearGradient>
	<path style="fill:url(#SVGID_00000039112539049369220350000003033462201589688483_);" d="M-194.1,44.3l-9.1-1.3l-4.1-8.3
		c-0.4-0.9-1.3-1.5-2.3-1.5l0,0c-1,0-1.9,0.6-2.3,1.4l-4.1,8.3l-9.1,1.3c-1,0.1-1.8,0.8-2.1,1.8c-0.3,0.9-0.1,2,0.7,2.7l6.6,6.5
		l-1.6,9.1c-0.2,1,0.2,2,1,2.5c0.5,0.3,1,0.5,1.5,0.5c0.4,0,0.8-0.1,1.2-0.3l8.2-4.3l8.2,4.3c0.9,0.5,1.9,0.4,2.7-0.2
		c0.8-0.6,1.2-1.6,1-2.5l-1.6-9.1l6.6-6.5c0.7-0.7,1-1.7,0.7-2.7C-192.3,45.1-193.1,44.5-194.1,44.3z M-203.9,52.5
		c-0.6,0.6-0.9,1.5-0.7,2.3l0.9,5.3l-4.7-2.5c-0.4-0.2-0.8-0.3-1.2-0.3c-0.4,0-0.8,0.1-1.2,0.3l-4.7,2.5l0.9-5.3
		c0.1-0.8-0.1-1.7-0.7-2.3l-3.8-3.7l5.3-0.8c0.8-0.1,1.6-0.7,2-1.4l2.4-4.8l2.4,4.8c0.4,0.8,1.1,1.3,2,1.4l5.3,0.8L-203.9,52.5z"/>
</g>
<linearGradient id="SVGID_00000132062540774434034770000001286920146433121204_" gradientUnits="userSpaceOnUse" x1="-569.3499" y1="112.36" x2="-569.3499" y2="2.1947" gradientTransform="matrix(1 0 0 -1 0 112)">
	<stop  offset="0" style="stop-color:#8BBF3F"/>
	<stop  offset="1" style="stop-color:#3B6302"/>
</linearGradient>
<path style="fill:url(#SVGID_00000132062540774434034770000001286920146433121204_);" d="M-611.8,82.3c0,5,4.1,9.1,9.1,9.1h78.9
	c1.7,0,3,1.4,3,3s-1.4,3-3,3h-78.9c-8.4,0-15.2-6.8-15.2-15.2V15.6c0-1.7,1.4-3,3-3c1.7,0,3,1.4,3,3L-611.8,82.3L-611.8,82.3z
	 M-554.1,30.7h24.3c1.7,0,3,1.4,3,3V58c0,1.7-1.4,3-3,3c-1.6,0-3-1.4-3-3V41l-22.1,22.1c-1.2,1.2-3.1,1.2-4.3,0L-575.4,47
	l-18.9,19.1c-1.2,1.2-3.1,1.2-4.3,0s-1.2-3.1,0-4.3l21.2-21.2c1.2-1.2,3.1-1.2,4.3,0l16.1,16.1l20-20h-17c-1.7,0-3-1.4-3-3
	S-555.8,30.7-554.1,30.7z"/>
<linearGradient id="SVGID_00000083796967904110870130000017084574668000501663_" gradientUnits="userSpaceOnUse" x1="-309.3499" y1="112.36" x2="-309.3499" y2="2.1947" gradientTransform="matrix(1 0 0 -1 0 112)">
	<stop  offset="0" style="stop-color:#8BBF3F"/>
	<stop  offset="1" style="stop-color:#3B6302"/>
</linearGradient>
<path style="fill:url(#SVGID_00000083796967904110870130000017084574668000501663_);" d="M-354.8,12.5c1.7,0,3,1.4,3,3v66.8
	c0,5,4.1,9.1,9.1,9.1h78.9c1.7,0,3,1.4,3,3s-1.4,3-3,3h-78.9c-8.4,0-15.2-6.8-15.2-15.2V15.6C-357.8,13.9-356.5,12.5-354.8,12.5z
	 M-330.5,48.9c1.7,0,3,1.4,3,3v18.2c0,1.7-1.4,3-3,3c-1.6,0-3-1.4-3-3V52C-333.6,50.3-332.2,48.9-330.5,48.9z M-309.3,52
	c0,1.7-1.4,3-3,3s-3-1.4-3-3V33.8c0-1.7,1.4-3,3-3s3,1.4,3,3V52z M-294.1,18.6c1.7,0,3,1.4,3,3v18.2c0,1.7-1.4,3-3,3
	c-1.6,0-3-1.4-3-3V21.6C-297.2,19.9-295.8,18.6-294.1,18.6z M-272.9,70.2c0,1.7-1.4,3-3,3s-3-1.4-3-3V21.6c0-1.7,1.4-3,3-3
	s3,1.4,3,3V70.2z"/>
<linearGradient id="SVGID_00000183957437673475589460000013841815116300529833_" gradientUnits="userSpaceOnUse" x1="-439.303" y1="112.36" x2="-439.303" y2="2.1947" gradientTransform="matrix(1 0 0 -1 0 112)">
	<stop  offset="0" style="stop-color:#8BBF3F"/>
	<stop  offset="1" style="stop-color:#3B6302"/>
</linearGradient>
<path style="fill:url(#SVGID_00000183957437673475589460000013841815116300529833_);" d="M-393.4,58.2c-7.9,11.7-20.8,19.7-38.4,24
	c-2.7,0.7-4.6,3.1-4.6,5.9v9.4h18.2c1.8,0,2.9,1.4,2.9,3s-1.2,3-2.9,3h-42.3c-1.7,0-3-1.4-3-3s1.4-3,3-3h18.2v-9.4
	c0-2.8-1.9-5.2-4.6-5.9c-17.6-4.3-30.5-12.3-38.4-24c-11.9-17.5-8.1-36.4-7.9-37.2c0.3-1.4,1.5-2.4,3-2.4h20.6c0-1.2,0-2.3,0-3.3
	c0.1-5,4.1-8.8,9.1-8.8h42.4c4.8,0,9,3.9,9.1,8.8c0,1,0,2.1,0,3.3h20.6c1.4,0,2.7,1,3,2.4C-385.2,21.8-381.4,40.7-393.4,58.2z
	 M-454.1,73.6c-11.7-13.2-14.8-34.2-15.4-48.9h-18.1c-0.5,5.2-0.8,18.3,7.3,30.2C-474.6,63.3-465.8,69.6-454.1,73.6z M-439.3,77.5
	c23-10.3,24.6-46.7,24.1-62c0.1-1.6-1.2-2.9-2.9-2.9h-42.4c-1.7,0-3,1.3-3,2.9C-463.9,30.8-462.3,67.2-439.3,77.5z M-391,24.7h-18.1
	c-0.6,14.7-3.8,35.8-15.4,49.1c11.7-4.2,20.5-10.5,26.2-18.9C-390.2,43-390.5,29.9-391,24.7z"/>
<linearGradient id="SVGID_00000078002637947125878710000005987096754611824540_" gradientUnits="userSpaceOnUse" x1="5" y1="55" x2="105" y2="55">
	<stop  offset="0" style="stop-color:#94C44C"/>
	<stop  offset="1" style="stop-color:#3C6503"/>
</linearGradient>
<path style="fill:url(#SVGID_00000078002637947125878710000005987096754611824540_);" d="M5,17V93h100V17H5z M54.8,63.1L13.8,22.2
	h82.3L54.8,63.1z M39.3,55L10.2,84.1V25.9L39.3,55z M43,58.7l11.8,11.8l12.1-12l29.3,29.3H13.8L43,58.7z M70.5,54.8l29.3-29v58.3
	L70.5,54.8z"/>
</svg>
