<?xml version="1.0" encoding="utf-8"?>
<!-- Generator: Adobe Illustrator 27.6.1, SVG Export Plug-In . SVG Version: 6.00 Build 0)  -->
<svg version="1.1" id="Layer_1" xmlns="http://www.w3.org/2000/svg" xmlns:xlink="http://www.w3.org/1999/xlink" x="0px" y="0px"
	 viewBox="0 0 110 110" style="enable-background:new 0 0 110 110;" xml:space="preserve">
<style type="text/css">
	.st0{fill:url(#SVGID_1_);}
	.st1{fill:url(#SVGID_00000062904158570843161540000016805033263497689272_);}
</style>
<g>
	<linearGradient id="SVGID_1_" gradientUnits="userSpaceOnUse" x1="5" y1="55" x2="105" y2="55">
		<stop  offset="0" style="stop-color:#94C44C"/>
		<stop  offset="1" style="stop-color:#3C6503"/>
	</linearGradient>
	<path class="st0" d="M91.6,28.1c-0.5-13.2-8.5-21-21.5-21c-12.1,0-20.9,8.6-21.5,20.5l-8.2-2.3L5,25.2v68.9h34.2l31.7,8.8l34.1-9.5
		V24.4L91.6,28.1z M70,12.5c13.4,0,16.2,9.2,16.2,16.9c0,8.7-9.8,23.2-15.4,30.4c-6.1-7.1-17-21.5-17-30.9
		C53.9,19.2,60.5,12.5,70,12.5z M42.3,31.5l6.7,1.9c2.8,12.9,16,28.1,19.2,31.7v31.5l-25.9-7.2V31.5z M10.4,30.6h26.5v58.1
		l-26.5-0.1V30.6z M99.6,89.3l-25.9,7.2V65c2.9-3.5,14.8-18.9,17.4-31.1l8.5-2.4V89.3z"/>
	
		<linearGradient id="SVGID_00000058579639640837903260000013604145795587210657_" gradientUnits="userSpaceOnUse" x1="61.6294" y1="29.0689" x2="78.4098" y2="29.0689">
		<stop  offset="0" style="stop-color:#94C44C"/>
		<stop  offset="1" style="stop-color:#3C6503"/>
	</linearGradient>
	<path style="fill:url(#SVGID_00000058579639640837903260000013604145795587210657_);" d="M78.4,29.1c0-4.6-3.8-8.4-8.4-8.4
		c-4.6,0-8.4,3.8-8.4,8.4s3.8,8.4,8.4,8.4C74.6,37.5,78.4,33.7,78.4,29.1z M70,32c-1.6,0-3-1.3-3-3s1.3-3,3-3c1.6,0,3,1.3,3,3
		S71.7,32,70,32z"/>
</g>
</svg>
