<?xml version="1.0" encoding="utf-8"?>
<!-- Generator: Adobe Illustrator 27.6.1, SVG Export Plug-In . SVG Version: 6.00 Build 0)  -->
<svg version="1.1" id="Layer_1" xmlns="http://www.w3.org/2000/svg" xmlns:xlink="http://www.w3.org/1999/xlink" x="0px" y="0px"
	 viewBox="0 0 88 88" style="enable-background:new 0 0 88 88;" xml:space="preserve">
<style type="text/css">
	.st0{fill-rule:evenodd;clip-rule:evenodd;fill:#FFFFFF;}
	.st1{fill:#FFFFFF;}
</style>
<g>
	<g>
		<g>
			<path class="st0" d="M46.8,22c1.5,0,2.8,1.2,2.8,2.8v3.5l3-1.7c1.3-0.8,3-0.3,3.8,1c0.8,1.3,0.3,3-1,3.8c0,0,0,0,0,0l-3,1.7
				l3,1.7c1.3,0.8,1.8,2.4,1,3.7c-0.8,1.3-2.4,1.8-3.8,1c0,0,0,0,0,0l-3-1.7v3.5c0,1.5-1.2,2.7-2.8,2.7S44,42.8,44,41.3v-3.5l-3,1.7
				c-1.3,0.8-3,0.3-3.8-1c-0.8-1.3-0.3-3,1-3.8c0,0,0,0,0,0l3-1.7l-3-1.7c-1.3-0.8-1.8-2.5-1-3.8c0.8-1.3,2.4-1.7,3.7-1l3,1.7v-3.5
				C44,23.2,45.2,22,46.8,22L46.8,22z M30.2,52.2c0-1.5,1.2-2.8,2.8-2.8h27.5c1.5,0,2.8,1.2,2.8,2.8S62.1,55,60.5,55H33
				C31.5,55,30.2,53.8,30.2,52.2L30.2,52.2z M30.2,63.2c0-1.5,1.2-2.8,2.8-2.8h27.5c1.5,0,2.8,1.2,2.8,2.8c0,1.5-1.2,2.8-2.8,2.8H33
				C31.5,66,30.2,64.8,30.2,63.2L30.2,63.2z"/>
			<path class="st1" d="M19.2,0h55.1c6.1,0,11,4.9,11,11v66c0,6.1-4.9,11-11,11H19.2c-6.1,0-11-4.9-11-11v-5.5h5.5V77
				c0,3,2.5,5.5,5.5,5.5h55.1c3,0,5.5-2.5,5.5-5.5V11c0-3-2.5-5.5-5.5-5.5H19.2c-3,0-5.5,2.5-5.5,5.5v5.5H8.2V11
				C8.2,4.9,13.1,0,19.2,0L19.2,0z"/>
			<path class="st1" d="M8.2,27.5v-2.7c0-1.5,1.2-2.8,2.8-2.8s2.8,1.2,2.8,2.8v2.7h2.8c1.5,0,2.8,1.2,2.8,2.8c0,1.5-1.2,2.7-2.8,2.7
				h-11c-1.5,0-2.8-1.2-2.8-2.7c0-1.5,1.2-2.8,2.8-2.8H8.2L8.2,27.5L8.2,27.5z M8.2,44v-2.7c0-1.5,1.2-2.8,2.8-2.8s2.8,1.2,2.8,2.8
				V44h2.8c1.5,0,2.8,1.2,2.8,2.8c0,1.5-1.2,2.7-2.8,2.7h-11c-1.5,0-2.8-1.2-2.8-2.7c0-1.5,1.2-2.8,2.8-2.8H8.2L8.2,44L8.2,44z
				 M8.2,60.5v-2.7c0-1.5,1.2-2.7,2.8-2.7s2.8,1.2,2.8,2.7v2.7h2.8c1.5,0,2.8,1.2,2.8,2.8c0,1.5-1.2,2.8-2.8,2.8h-11
				c-1.5,0-2.8-1.2-2.8-2.8c0-1.5,1.2-2.8,2.8-2.8H8.2L8.2,60.5L8.2,60.5z"/>
		</g>
	</g>
</g>
</svg>
