<?xml version="1.0" encoding="utf-8"?>
<!-- Generator: Adobe Illustrator 27.6.1, SVG Export Plug-In . SVG Version: 6.00 Build 0)  -->
<svg version="1.1" id="Layer_1" xmlns="http://www.w3.org/2000/svg" xmlns:xlink="http://www.w3.org/1999/xlink" x="0px" y="0px"
	 viewBox="0 0 88 88" style="enable-background:new 0 0 88 88;" xml:space="preserve">
<style type="text/css">
	.st0{fill:#FFFFFF;}
</style>
<g>
	<g>
		<g>
			<path class="st0" d="M29.3,8.7c-5.2,1.4-10.5,3-15.6,4.7c-1,0.3-1.7,1.1-1.8,2.1c-3.1,22.9,4,39.5,12.4,50.5
				c3.6,4.7,7.8,8.8,12.6,12.3c1.9,1.3,3.6,2.3,4.9,2.9c0.7,0.3,1.2,0.5,1.6,0.6c0.2,0.1,0.4,0.1,0.6,0.1c0.2,0,0.4-0.1,0.6-0.1
				c0.4-0.1,1-0.3,1.6-0.6c1.3-0.6,3-1.6,4.9-2.9c4.8-3.4,9-7.6,12.6-12.3c8.4-11,15.5-27.7,12.4-50.5c-0.1-1-0.8-1.8-1.8-2.1
				c-3.6-1.2-9.6-3.1-15.6-4.7C52.6,7.1,46.9,5.9,44,5.9C41.1,5.9,35.4,7.1,29.3,8.7L29.3,8.7z M27.9,3.1C33.8,1.5,40.2,0,44,0
				c3.8,0,10.2,1.5,16.1,3.1C66.2,4.7,72.4,6.7,76,7.9c3.1,1,5.3,3.7,5.8,6.9c3.3,24.6-4.3,42.9-13.6,54.9
				c-3.9,5.2-8.6,9.7-13.9,13.5c-1.8,1.3-3.8,2.5-5.8,3.4C47,87.4,45.4,88,44,88c-1.4,0-3-0.6-4.6-1.3c-2-1-4-2.1-5.8-3.4
				c-5.3-3.8-9.9-8.3-13.9-13.5C10.5,57.7,2.9,39.4,6.2,14.8c0.4-3.2,2.7-5.9,5.8-6.9C17.2,6.1,22.5,4.5,27.9,3.1L27.9,3.1z"/>
			<path class="st0" d="M59.7,28.3c1.1,1.1,1.1,2.8,0,3.9c0,0,0,0,0,0L43.2,48.7c-1.1,1.1-2.8,1.1-3.9,0c0,0,0,0,0,0L31,40.4
				c-1.1-1.1-1.1-2.8,0-3.9c1.1-1.1,2.8-1.1,3.9,0l6.3,6.3l14.6-14.6C56.9,27.2,58.6,27.2,59.7,28.3C59.7,28.3,59.7,28.3,59.7,28.3
				L59.7,28.3z"/>
		</g>
	</g>
</g>
</svg>
